<mxfile host="app.diagrams.net" modified="2022-09-13T23:32:41.295Z" agent="5.0 (Windows NT 10.0; Win64; x64) AppleWebKit/537.36 (KHTML, like Gecko) Chrome/105.0.0.0 Safari/537.36" etag="dclGt6-pF4duqMKF1BR7" version="20.2.3" type="github">
  <diagram id="I6QVXd1I-xNogWmLVkFL" name="Page-1">
    <mxGraphModel dx="1673" dy="887" grid="1" gridSize="10" guides="1" tooltips="1" connect="1" arrows="1" fold="1" page="1" pageScale="1" pageWidth="827" pageHeight="1169" math="0" shadow="0">
      <root>
        <mxCell id="0" />
        <mxCell id="1" parent="0" />
        <mxCell id="b7oKRtTxMujNs4o9NvtN-1" value="Customer" style="swimlane;fontStyle=1;align=center;verticalAlign=top;childLayout=stackLayout;horizontal=1;startSize=26;horizontalStack=0;resizeParent=1;resizeParentMax=0;resizeLast=0;collapsible=1;marginBottom=0;" parent="1" vertex="1">
          <mxGeometry x="70" y="36" width="290" height="220" as="geometry" />
        </mxCell>
        <mxCell id="b7oKRtTxMujNs4o9NvtN-2" value="+ &lt;&lt;get, set&gt;&gt; Email: string&#xa;+ &lt;&lt;get, set&gt;&gt; Username: string&#xa;+ &lt;&lt;get, set&gt;&gt; Password: string&#xa;+ &lt;&lt;get, set&gt;&gt; Address: string&#xa;- listOfOrders: List&lt;Order&gt;&#xa;- productManager: ProductManager" style="text;strokeColor=none;fillColor=none;align=left;verticalAlign=top;spacingLeft=4;spacingRight=4;overflow=hidden;rotatable=0;points=[[0,0.5],[1,0.5]];portConstraint=eastwest;" parent="b7oKRtTxMujNs4o9NvtN-1" vertex="1">
          <mxGeometry y="26" width="290" height="94" as="geometry" />
        </mxCell>
        <mxCell id="b7oKRtTxMujNs4o9NvtN-3" value="" style="line;strokeWidth=1;fillColor=none;align=left;verticalAlign=middle;spacingTop=-1;spacingLeft=3;spacingRight=3;rotatable=0;labelPosition=right;points=[];portConstraint=eastwest;strokeColor=inherit;" parent="b7oKRtTxMujNs4o9NvtN-1" vertex="1">
          <mxGeometry y="120" width="290" height="8" as="geometry" />
        </mxCell>
        <mxCell id="b7oKRtTxMujNs4o9NvtN-4" value="+ Customer(email: string, username: string, &#xa;password: string, address: string, &#xa;linkedProductStorage: ProductManager)&#xa;+ CreateOrder(product: Product, quantity: int)&#xa;+ ModifyOrder(orderToModify: Order, &#xa;newProduct: Product, newQuantity: int)" style="text;strokeColor=none;fillColor=none;align=left;verticalAlign=top;spacingLeft=4;spacingRight=4;overflow=hidden;rotatable=0;points=[[0,0.5],[1,0.5]];portConstraint=eastwest;" parent="b7oKRtTxMujNs4o9NvtN-1" vertex="1">
          <mxGeometry y="128" width="290" height="92" as="geometry" />
        </mxCell>
        <mxCell id="b7oKRtTxMujNs4o9NvtN-31" style="edgeStyle=orthogonalEdgeStyle;rounded=0;orthogonalLoop=1;jettySize=auto;html=1;endArrow=diamondThin;endFill=0;endSize=20;" parent="1" source="b7oKRtTxMujNs4o9NvtN-5" target="b7oKRtTxMujNs4o9NvtN-9" edge="1">
          <mxGeometry relative="1" as="geometry" />
        </mxCell>
        <mxCell id="b7oKRtTxMujNs4o9NvtN-40" value="0..1" style="edgeLabel;html=1;align=center;verticalAlign=middle;resizable=0;points=[];" parent="b7oKRtTxMujNs4o9NvtN-31" vertex="1" connectable="0">
          <mxGeometry x="0.5869" y="1" relative="1" as="geometry">
            <mxPoint x="16" y="-6" as="offset" />
          </mxGeometry>
        </mxCell>
        <mxCell id="b7oKRtTxMujNs4o9NvtN-41" value="1" style="edgeLabel;html=1;align=center;verticalAlign=middle;resizable=0;points=[];" parent="b7oKRtTxMujNs4o9NvtN-31" vertex="1" connectable="0">
          <mxGeometry x="-0.6623" y="-2" relative="1" as="geometry">
            <mxPoint x="-7" y="8" as="offset" />
          </mxGeometry>
        </mxCell>
        <mxCell id="b7oKRtTxMujNs4o9NvtN-5" value="Product" style="swimlane;fontStyle=1;align=center;verticalAlign=top;childLayout=stackLayout;horizontal=1;startSize=26;horizontalStack=0;resizeParent=1;resizeParentMax=0;resizeLast=0;collapsible=1;marginBottom=0;" parent="1" vertex="1">
          <mxGeometry x="95" y="658" width="240" height="104" as="geometry" />
        </mxCell>
        <mxCell id="b7oKRtTxMujNs4o9NvtN-6" value="+ &lt;&lt;get&gt;&gt; Name: string&#xa;+ &lt;&lt;get&gt;&gt; Price: double" style="text;strokeColor=none;fillColor=none;align=left;verticalAlign=top;spacingLeft=4;spacingRight=4;overflow=hidden;rotatable=0;points=[[0,0.5],[1,0.5]];portConstraint=eastwest;" parent="b7oKRtTxMujNs4o9NvtN-5" vertex="1">
          <mxGeometry y="26" width="240" height="44" as="geometry" />
        </mxCell>
        <mxCell id="b7oKRtTxMujNs4o9NvtN-7" value="" style="line;strokeWidth=1;fillColor=none;align=left;verticalAlign=middle;spacingTop=-1;spacingLeft=3;spacingRight=3;rotatable=0;labelPosition=right;points=[];portConstraint=eastwest;strokeColor=inherit;" parent="b7oKRtTxMujNs4o9NvtN-5" vertex="1">
          <mxGeometry y="70" width="240" height="8" as="geometry" />
        </mxCell>
        <mxCell id="b7oKRtTxMujNs4o9NvtN-8" value="+ Product(name: string, price: double)" style="text;strokeColor=none;fillColor=none;align=left;verticalAlign=top;spacingLeft=4;spacingRight=4;overflow=hidden;rotatable=0;points=[[0,0.5],[1,0.5]];portConstraint=eastwest;" parent="b7oKRtTxMujNs4o9NvtN-5" vertex="1">
          <mxGeometry y="78" width="240" height="26" as="geometry" />
        </mxCell>
        <mxCell id="b7oKRtTxMujNs4o9NvtN-30" style="edgeStyle=orthogonalEdgeStyle;rounded=0;orthogonalLoop=1;jettySize=auto;html=1;endArrow=diamondThin;endFill=1;endSize=20;" parent="1" source="b7oKRtTxMujNs4o9NvtN-9" target="b7oKRtTxMujNs4o9NvtN-1" edge="1">
          <mxGeometry relative="1" as="geometry" />
        </mxCell>
        <mxCell id="b7oKRtTxMujNs4o9NvtN-38" value="1" style="edgeLabel;html=1;align=center;verticalAlign=middle;resizable=0;points=[];" parent="b7oKRtTxMujNs4o9NvtN-30" vertex="1" connectable="0">
          <mxGeometry x="0.6323" y="-1" relative="1" as="geometry">
            <mxPoint x="4" y="8" as="offset" />
          </mxGeometry>
        </mxCell>
        <mxCell id="b7oKRtTxMujNs4o9NvtN-39" value="*" style="edgeLabel;html=1;align=center;verticalAlign=middle;resizable=0;points=[];" parent="b7oKRtTxMujNs4o9NvtN-30" vertex="1" connectable="0">
          <mxGeometry x="-0.742" y="1" relative="1" as="geometry">
            <mxPoint x="6" as="offset" />
          </mxGeometry>
        </mxCell>
        <mxCell id="b7oKRtTxMujNs4o9NvtN-9" value="Order" style="swimlane;fontStyle=1;align=center;verticalAlign=top;childLayout=stackLayout;horizontal=1;startSize=26;horizontalStack=0;resizeParent=1;resizeParentMax=0;resizeLast=0;collapsible=1;marginBottom=0;" parent="1" vertex="1">
          <mxGeometry x="85" y="400" width="260" height="104" as="geometry" />
        </mxCell>
        <mxCell id="b7oKRtTxMujNs4o9NvtN-10" value="+ &lt;&lt;get, set&gt;&gt; OrderProduct: Product&#xa;+ &lt;&lt;get, set&gt;&gt; Quantity: int" style="text;strokeColor=none;fillColor=none;align=left;verticalAlign=top;spacingLeft=4;spacingRight=4;overflow=hidden;rotatable=0;points=[[0,0.5],[1,0.5]];portConstraint=eastwest;" parent="b7oKRtTxMujNs4o9NvtN-9" vertex="1">
          <mxGeometry y="26" width="260" height="44" as="geometry" />
        </mxCell>
        <mxCell id="b7oKRtTxMujNs4o9NvtN-11" value="" style="line;strokeWidth=1;fillColor=none;align=left;verticalAlign=middle;spacingTop=-1;spacingLeft=3;spacingRight=3;rotatable=0;labelPosition=right;points=[];portConstraint=eastwest;strokeColor=inherit;" parent="b7oKRtTxMujNs4o9NvtN-9" vertex="1">
          <mxGeometry y="70" width="260" height="8" as="geometry" />
        </mxCell>
        <mxCell id="b7oKRtTxMujNs4o9NvtN-12" value="+ Order(orderProduct: Product, quantity: int)" style="text;strokeColor=none;fillColor=none;align=left;verticalAlign=top;spacingLeft=4;spacingRight=4;overflow=hidden;rotatable=0;points=[[0,0.5],[1,0.5]];portConstraint=eastwest;" parent="b7oKRtTxMujNs4o9NvtN-9" vertex="1">
          <mxGeometry y="78" width="260" height="26" as="geometry" />
        </mxCell>
        <mxCell id="b7oKRtTxMujNs4o9NvtN-25" style="edgeStyle=orthogonalEdgeStyle;rounded=0;orthogonalLoop=1;jettySize=auto;html=1;entryX=0.5;entryY=0;entryDx=0;entryDy=0;endArrow=diamondThin;endFill=1;endSize=20;" parent="1" source="b7oKRtTxMujNs4o9NvtN-13" target="b7oKRtTxMujNs4o9NvtN-21" edge="1">
          <mxGeometry relative="1" as="geometry" />
        </mxCell>
        <mxCell id="b7oKRtTxMujNs4o9NvtN-32" value="1" style="edgeLabel;html=1;align=center;verticalAlign=middle;resizable=0;points=[];" parent="b7oKRtTxMujNs4o9NvtN-25" vertex="1" connectable="0">
          <mxGeometry x="-0.8466" y="1" relative="1" as="geometry">
            <mxPoint x="-11" as="offset" />
          </mxGeometry>
        </mxCell>
        <mxCell id="b7oKRtTxMujNs4o9NvtN-33" value="1" style="edgeLabel;html=1;align=center;verticalAlign=middle;resizable=0;points=[];" parent="b7oKRtTxMujNs4o9NvtN-25" vertex="1" connectable="0">
          <mxGeometry x="0.6349" y="2" relative="1" as="geometry">
            <mxPoint x="8" y="5" as="offset" />
          </mxGeometry>
        </mxCell>
        <mxCell id="b7oKRtTxMujNs4o9NvtN-27" style="edgeStyle=orthogonalEdgeStyle;rounded=0;orthogonalLoop=1;jettySize=auto;html=1;endArrow=none;endFill=0;endSize=20;startArrow=diamondThin;startFill=0;startSize=20;" parent="1" source="b7oKRtTxMujNs4o9NvtN-13" target="b7oKRtTxMujNs4o9NvtN-1" edge="1">
          <mxGeometry relative="1" as="geometry" />
        </mxCell>
        <mxCell id="b7oKRtTxMujNs4o9NvtN-36" value="0..1" style="edgeLabel;html=1;align=center;verticalAlign=middle;resizable=0;points=[];" parent="b7oKRtTxMujNs4o9NvtN-27" vertex="1" connectable="0">
          <mxGeometry x="-0.722" y="1" relative="1" as="geometry">
            <mxPoint x="-18" y="13" as="offset" />
          </mxGeometry>
        </mxCell>
        <mxCell id="b7oKRtTxMujNs4o9NvtN-37" value="*" style="edgeLabel;html=1;align=center;verticalAlign=middle;resizable=0;points=[];" parent="b7oKRtTxMujNs4o9NvtN-27" vertex="1" connectable="0">
          <mxGeometry x="0.6054" relative="1" as="geometry">
            <mxPoint x="-21" y="-16" as="offset" />
          </mxGeometry>
        </mxCell>
        <mxCell id="b7oKRtTxMujNs4o9NvtN-13" value="CustomerManager" style="swimlane;fontStyle=1;align=center;verticalAlign=top;childLayout=stackLayout;horizontal=1;startSize=26;horizontalStack=0;resizeParent=1;resizeParentMax=0;resizeLast=0;collapsible=1;marginBottom=0;" parent="1" vertex="1">
          <mxGeometry x="520" y="81" width="300" height="130" as="geometry" />
        </mxCell>
        <mxCell id="b7oKRtTxMujNs4o9NvtN-14" value="- customers: List&lt;Customer&gt;" style="text;strokeColor=none;fillColor=none;align=left;verticalAlign=top;spacingLeft=4;spacingRight=4;overflow=hidden;rotatable=0;points=[[0,0.5],[1,0.5]];portConstraint=eastwest;" parent="b7oKRtTxMujNs4o9NvtN-13" vertex="1">
          <mxGeometry y="26" width="300" height="26" as="geometry" />
        </mxCell>
        <mxCell id="b7oKRtTxMujNs4o9NvtN-15" value="" style="line;strokeWidth=1;fillColor=none;align=left;verticalAlign=middle;spacingTop=-1;spacingLeft=3;spacingRight=3;rotatable=0;labelPosition=right;points=[];portConstraint=eastwest;strokeColor=inherit;" parent="b7oKRtTxMujNs4o9NvtN-13" vertex="1">
          <mxGeometry y="52" width="300" height="8" as="geometry" />
        </mxCell>
        <mxCell id="b7oKRtTxMujNs4o9NvtN-16" value="+ CustomerManager()&#xa;+ Login(username: string, password: string): Customer&#xa;+ Register(newCustomer: Customer)&#xa;+ Delete(customerToDelete: Customer)" style="text;strokeColor=none;fillColor=none;align=left;verticalAlign=top;spacingLeft=4;spacingRight=4;overflow=hidden;rotatable=0;points=[[0,0.5],[1,0.5]];portConstraint=eastwest;" parent="b7oKRtTxMujNs4o9NvtN-13" vertex="1">
          <mxGeometry y="60" width="300" height="70" as="geometry" />
        </mxCell>
        <mxCell id="b7oKRtTxMujNs4o9NvtN-26" style="edgeStyle=orthogonalEdgeStyle;rounded=0;orthogonalLoop=1;jettySize=auto;html=1;endArrow=diamondThin;endFill=1;endSize=20;" parent="1" source="b7oKRtTxMujNs4o9NvtN-17" target="b7oKRtTxMujNs4o9NvtN-21" edge="1">
          <mxGeometry relative="1" as="geometry" />
        </mxCell>
        <mxCell id="b7oKRtTxMujNs4o9NvtN-34" value="1" style="edgeLabel;html=1;align=center;verticalAlign=middle;resizable=0;points=[];" parent="b7oKRtTxMujNs4o9NvtN-26" vertex="1" connectable="0">
          <mxGeometry x="0.6439" y="-2" relative="1" as="geometry">
            <mxPoint x="8" y="-4" as="offset" />
          </mxGeometry>
        </mxCell>
        <mxCell id="b7oKRtTxMujNs4o9NvtN-35" value="1" style="edgeLabel;html=1;align=center;verticalAlign=middle;resizable=0;points=[];" parent="b7oKRtTxMujNs4o9NvtN-26" vertex="1" connectable="0">
          <mxGeometry x="-0.7509" y="-1" relative="1" as="geometry">
            <mxPoint x="-11" y="13" as="offset" />
          </mxGeometry>
        </mxCell>
        <mxCell id="b7oKRtTxMujNs4o9NvtN-28" style="edgeStyle=orthogonalEdgeStyle;rounded=0;orthogonalLoop=1;jettySize=auto;html=1;endArrow=diamondThin;endFill=0;endSize=20;" parent="1" source="b7oKRtTxMujNs4o9NvtN-17" target="b7oKRtTxMujNs4o9NvtN-5" edge="1">
          <mxGeometry relative="1" as="geometry" />
        </mxCell>
        <mxCell id="b7oKRtTxMujNs4o9NvtN-42" value="0..1" style="edgeLabel;html=1;align=center;verticalAlign=middle;resizable=0;points=[];" parent="b7oKRtTxMujNs4o9NvtN-28" vertex="1" connectable="0">
          <mxGeometry x="-0.6323" y="1" relative="1" as="geometry">
            <mxPoint x="10" y="-11" as="offset" />
          </mxGeometry>
        </mxCell>
        <mxCell id="b7oKRtTxMujNs4o9NvtN-43" value="*" style="edgeLabel;html=1;align=center;verticalAlign=middle;resizable=0;points=[];" parent="b7oKRtTxMujNs4o9NvtN-28" vertex="1" connectable="0">
          <mxGeometry x="0.626" y="1" relative="1" as="geometry">
            <mxPoint x="-6" y="9" as="offset" />
          </mxGeometry>
        </mxCell>
        <mxCell id="b7oKRtTxMujNs4o9NvtN-17" value="ProductManager" style="swimlane;fontStyle=1;align=center;verticalAlign=top;childLayout=stackLayout;horizontal=1;startSize=26;horizontalStack=0;resizeParent=1;resizeParentMax=0;resizeLast=0;collapsible=1;marginBottom=0;" parent="1" vertex="1">
          <mxGeometry x="500" y="650" width="340" height="120" as="geometry" />
        </mxCell>
        <mxCell id="b7oKRtTxMujNs4o9NvtN-18" value="- stock: Dictionary&lt;Product, int&gt;" style="text;strokeColor=none;fillColor=none;align=left;verticalAlign=top;spacingLeft=4;spacingRight=4;overflow=hidden;rotatable=0;points=[[0,0.5],[1,0.5]];portConstraint=eastwest;" parent="b7oKRtTxMujNs4o9NvtN-17" vertex="1">
          <mxGeometry y="26" width="340" height="26" as="geometry" />
        </mxCell>
        <mxCell id="b7oKRtTxMujNs4o9NvtN-19" value="" style="line;strokeWidth=1;fillColor=none;align=left;verticalAlign=middle;spacingTop=-1;spacingLeft=3;spacingRight=3;rotatable=0;labelPosition=right;points=[];portConstraint=eastwest;strokeColor=inherit;" parent="b7oKRtTxMujNs4o9NvtN-17" vertex="1">
          <mxGeometry y="52" width="340" height="8" as="geometry" />
        </mxCell>
        <mxCell id="b7oKRtTxMujNs4o9NvtN-20" value="+ ProductManager()&#xa;+ CheckAvailability(productToCheck: Product): int&#xa;+ UpdateStock(productToUpdate: Product, newQuantity: int)&#xa;+ GetProducts(): List&lt;Product&gt;" style="text;strokeColor=none;fillColor=none;align=left;verticalAlign=top;spacingLeft=4;spacingRight=4;overflow=hidden;rotatable=0;points=[[0,0.5],[1,0.5]];portConstraint=eastwest;" parent="b7oKRtTxMujNs4o9NvtN-17" vertex="1">
          <mxGeometry y="60" width="340" height="60" as="geometry" />
        </mxCell>
        <mxCell id="b7oKRtTxMujNs4o9NvtN-21" value="Program" style="swimlane;fontStyle=1;align=center;verticalAlign=top;childLayout=stackLayout;horizontal=1;startSize=26;horizontalStack=0;resizeParent=1;resizeParentMax=0;resizeLast=0;collapsible=1;marginBottom=0;" parent="1" vertex="1">
          <mxGeometry x="590" y="400" width="160" height="60" as="geometry" />
        </mxCell>
        <mxCell id="b7oKRtTxMujNs4o9NvtN-23" value="" style="line;strokeWidth=1;fillColor=none;align=left;verticalAlign=middle;spacingTop=-1;spacingLeft=3;spacingRight=3;rotatable=0;labelPosition=right;points=[];portConstraint=eastwest;strokeColor=inherit;" parent="b7oKRtTxMujNs4o9NvtN-21" vertex="1">
          <mxGeometry y="26" width="160" height="8" as="geometry" />
        </mxCell>
        <mxCell id="b7oKRtTxMujNs4o9NvtN-24" value="+ Main(string[] args)" style="text;strokeColor=none;fillColor=none;align=left;verticalAlign=top;spacingLeft=4;spacingRight=4;overflow=hidden;rotatable=0;points=[[0,0.5],[1,0.5]];portConstraint=eastwest;fontStyle=4" parent="b7oKRtTxMujNs4o9NvtN-21" vertex="1">
          <mxGeometry y="34" width="160" height="26" as="geometry" />
        </mxCell>
        <mxCell id="-Dq-nXsEoS6T6UR--slJ-1" style="edgeStyle=orthogonalEdgeStyle;rounded=0;orthogonalLoop=1;jettySize=auto;html=1;endArrow=none;endFill=0;" edge="1" parent="1" source="b7oKRtTxMujNs4o9NvtN-4" target="b7oKRtTxMujNs4o9NvtN-17">
          <mxGeometry relative="1" as="geometry">
            <Array as="points">
              <mxPoint x="330" y="330" />
              <mxPoint x="510" y="330" />
            </Array>
          </mxGeometry>
        </mxCell>
        <mxCell id="-Dq-nXsEoS6T6UR--slJ-2" value="*" style="edgeLabel;html=1;align=center;verticalAlign=middle;resizable=0;points=[];" vertex="1" connectable="0" parent="-Dq-nXsEoS6T6UR--slJ-1">
          <mxGeometry x="-0.9456" y="2" relative="1" as="geometry">
            <mxPoint x="8" y="-1" as="offset" />
          </mxGeometry>
        </mxCell>
        <mxCell id="-Dq-nXsEoS6T6UR--slJ-3" value="1" style="edgeLabel;html=1;align=center;verticalAlign=middle;resizable=0;points=[];" vertex="1" connectable="0" parent="-Dq-nXsEoS6T6UR--slJ-1">
          <mxGeometry x="0.9184" y="1" relative="1" as="geometry">
            <mxPoint as="offset" />
          </mxGeometry>
        </mxCell>
      </root>
    </mxGraphModel>
  </diagram>
</mxfile>
